<svg xmlns="http://www.w3.org/2000/svg" version="1.1" xmlns:xlink="http://www.w3.org/1999/xlink" xmlns:svgjs="http://svgjs.com/svgjs" width="1440" height="560" preserveAspectRatio="none" viewBox="0 0 1440 560">
    <g mask="url(&quot;#SvgjsMask1851&quot;)" fill="none">
        <rect width="1440" height="560" x="0" y="0" fill="url(#SvgjsRadialGradient1852)"></rect>
        <path d="M1488 560L0 560 L0 451.77Q64.13 395.9, 120 460.04Q163.41 431.45, 192 474.85Q239.25 402.1, 312 449.34Q366.02 431.36, 384 485.38Q407.15 436.53, 456 459.69Q522.6 406.28, 576 472.88Q642.05 418.93, 696 484.98Q720.37 437.35, 768 461.71Q809.21 430.92, 840 472.13Q882.52 442.65, 912 485.17Q959.99 413.16, 1032 461.15Q1098.24 407.39, 1152 473.64Q1175.89 425.53, 1224 449.43Q1277.24 430.67, 1296 483.91Q1322.64 438.56, 1368 465.2Q1422.34 399.53, 1488 453.87z" fill="#182f5d"></path>
        <path d="M1464 560L0 560 L0 492.88Q64.13 437.01, 120 501.15Q185.26 446.41, 240 511.68Q261.76 461.44, 312 483.21Q378.34 429.55, 432 495.9Q475.74 467.64, 504 511.38Q525.33 460.7, 576 482.03Q621.02 455.05, 648 500.07Q714.68 446.75, 768 513.44Q814.07 439.51, 888 485.58Q956.71 434.29, 1008 503Q1071.93 446.93, 1128 510.86Q1153.1 463.96, 1200 489.05Q1254.54 423.59, 1320 478.12Q1369.81 455.93, 1392 505.74Q1422.36 464.1, 1464 494.46z" fill="#25467d"></path>
        <path d="M1536 560L0 560 L0 520.1Q39.04 487.14, 72 526.18Q138.07 472.25, 192 538.32Q214.08 488.4, 264 510.49Q330.63 457.12, 384 523.74Q450.23 469.97, 504 536.19Q526.72 486.91, 576 509.63Q618.09 479.72, 648 521.81Q715.75 469.56, 768 537.31Q789.98 487.28, 840 509.26Q906.03 455.29, 960 521.32Q1002.75 492.07, 1032 534.81Q1080.09 462.89, 1152 510.98Q1194.08 481.06, 1224 523.13Q1292.54 471.67, 1344 540.22Q1365.3 489.52, 1416 510.82Q1484.82 459.63, 1536 528.45z" fill="#356cb1"></path>
        <path d="M1512 560L0 560 L0 564.63Q56.63 501.26, 120 557.9Q173.77 491.67, 240 545.45Q311.92 497.38, 360 569.3Q390.03 527.33, 432 557.36Q486.21 491.57, 552 545.78Q624.64 498.42, 672 571.07Q713.76 492.83, 792 534.59Q861.97 484.56, 912 554.52Q953.97 524.49, 984 566.46Q1006.45 516.91, 1056 539.37Q1122.79 486.16, 1176 552.96Q1218.7 523.66, 1248 566.37Q1292.68 491.05, 1368 535.72Q1413.96 509.68, 1440 555.64Q1481.37 525.01, 1512 566.38z" fill="rgba(187, 194, 220, 1)"></path>
    </g>
    <defs>
        <mask id="SvgjsMask1851">
            <rect width="1440" height="560" fill="#ffffff"></rect>
        </mask>
        <radialGradient cx="50%" cy="50%" r="772.53" gradientUnits="userSpaceOnUse" id="SvgjsRadialGradient1852">
            <stop stop-color="#0e2a47" offset="0"></stop>
            <stop stop-color="rgba(0, 0, 0, 1)" offset="1"></stop>
        </radialGradient>
    </defs>
</svg>